<svg width="20" height="20" viewBox="0 0 20 20" fill="none" xmlns="http://www.w3.org/2000/svg">
<path d="M10 5.50823C10.1821 5.50823 10.3383 5.57277 10.4684 5.70184C10.5985 5.82575 10.6635 5.98064 10.6635 6.16651V11.5644L9.87512 9.15586L12.49 12.6641C12.6149 12.8345 12.6696 13.01 12.654 13.1907C12.6384 13.3662 12.5551 13.5082 12.4042 13.6167C12.2325 13.7354 12.0555 13.7793 11.8734 13.7483C11.6965 13.7173 11.5351 13.6089 11.3894 13.423L9.53166 10.999C9.46402 10.9061 9.41198 10.8183 9.37555 10.7357C9.34433 10.6531 9.32872 10.5653 9.32872 10.4724V6.16651C9.32872 5.98064 9.39376 5.82575 9.52386 5.70184C9.65396 5.57277 9.81267 5.50823 10 5.50823ZM10 2C10.8534 2 11.673 2.13166 12.4588 2.39497C13.2446 2.65311 13.9679 3.0171 14.6288 3.48693C15.2897 3.95676 15.8569 4.50662 16.3305 5.1365C16.5022 5.34301 16.5777 5.55728 16.5568 5.77928C16.536 5.99613 16.4346 6.16909 16.2524 6.29816C16.0651 6.4324 15.8647 6.47886 15.6514 6.43756C15.4432 6.39109 15.2611 6.27493 15.105 6.08906C14.7095 5.57793 14.2489 5.1365 13.7234 4.76476C13.1978 4.38787 12.6201 4.09874 11.9905 3.89739C11.3608 3.69087 10.6973 3.58761 10 3.58761C9.23505 3.58761 8.50911 3.70894 7.82221 3.9516C7.1405 4.19426 6.52125 4.53501 5.96444 4.97386C5.41283 5.41271 4.94188 5.92901 4.5516 6.52275C4.16651 7.11133 3.88811 7.75928 3.71638 8.4666H4.77016C4.95749 8.4666 5.098 8.50791 5.19167 8.59051C5.29054 8.67312 5.33737 8.78154 5.33217 8.91578C5.33217 9.04485 5.28273 9.18167 5.18386 9.32623L3.36512 11.8354C3.24023 12.0058 3.09192 12.0936 2.92019 12.0987C2.75367 12.0987 2.60536 12.011 2.47527 11.8354L0.656526 9.33398C0.557653 9.18942 0.505615 9.05002 0.500411 8.91578C0.495207 8.78154 0.53944 8.67312 0.633109 8.59051C0.731981 8.50791 0.877689 8.4666 1.07023 8.4666H2.09278C2.26971 7.55276 2.59756 6.70345 3.07631 5.91868C3.56027 5.13391 4.1535 4.44724 4.85602 3.85866C5.56374 3.27009 6.35472 2.81317 7.22897 2.4879C8.10321 2.16263 9.02689 2 10 2ZM10 18C9.14658 18 8.32698 17.8683 7.5412 17.605C6.75542 17.3469 6.03209 16.9803 5.3712 16.5053C4.71031 16.0355 4.1431 15.4882 3.66955 14.8635C3.49782 14.657 3.42236 14.4453 3.44318 14.2285C3.46399 14.0065 3.56287 13.8309 3.7398 13.7018C3.93754 13.5676 4.14049 13.5237 4.34865 13.5702C4.5568 13.6167 4.73893 13.7302 4.89505 13.9109C5.28534 14.4221 5.74327 14.8661 6.26886 15.243C6.79965 15.6147 7.37728 15.9013 8.00174 16.1026C8.6314 16.3091 9.29749 16.415 10 16.4201C10.765 16.4201 11.4883 16.2988 12.17 16.0561C12.8569 15.8135 13.4788 15.4727 14.0356 15.0339C14.5924 14.595 15.0633 14.0787 15.4484 13.485C15.8387 12.8861 16.1197 12.2381 16.2914 11.5411H15.2377C15.0451 11.5411 14.8994 11.4998 14.8005 11.4172C14.7069 11.3295 14.66 11.221 14.66 11.092C14.6652 10.9577 14.7199 10.8183 14.824 10.6738L16.6349 8.16457C16.7598 7.99419 16.9081 7.909 17.0798 7.909C17.2516 7.90384 17.3999 7.98903 17.5248 8.16457L19.3357 10.666C19.445 10.8157 19.4996 10.9577 19.4996 11.092C19.5048 11.221 19.458 11.3295 19.3591 11.4172C19.2602 11.4998 19.1145 11.5411 18.922 11.5411H17.915C17.7329 12.455 17.4025 13.3043 16.9237 14.0891C16.445 14.8687 15.8517 15.5502 15.144 16.1336C14.4363 16.7222 13.6453 17.1791 12.7711 17.5044C11.8968 17.8348 10.9731 18 10 18Z" fill="#737373"/>
</svg>
