<svg width="18" height="18" viewBox="0 0 18 18" fill="none" xmlns="http://www.w3.org/2000/svg">
<path d="M9 10.1924C7.6752 10.1924 6.6 9.08031 6.6 7.70988C6.6 6.33797 7.6752 5.22533 9 5.22533C10.3248 5.22533 11.4 6.33797 11.4 7.70988C11.4 9.08031 10.3248 10.1924 9 10.1924ZM14.0618 10.976C14.6756 9.98651 15 8.84438 15 7.67217C14.9996 4.27037 12.3085 1.50147 9.00106 1.5C5.694 1.50147 3.00211 4.27037 3 7.67217C3 8.84108 3.32435 9.9832 3.95682 11.0032L7.51441 15.6868C8.33507 16.7673 9.66206 16.7715 10.478 15.6967L14.0618 10.976Z" fill="#CAD1DB"/>
</svg>
