<svg width="23" height="19" viewBox="0 0 23 19" fill="none" xmlns="http://www.w3.org/2000/svg">
<path d="M3.32861 6.66553C2.71989 6.66553 2.16097 6.51611 1.65186 6.21729C1.14827 5.91292 0.74707 5.50895 0.448242 5.00537C0.149414 4.50179 0 3.9401 0 3.32031C0 2.71159 0.149414 2.15544 0.448242 1.65186C0.74707 1.14827 1.14827 0.74707 1.65186 0.448242C2.16097 0.149414 2.71989 0 3.32861 0C3.94287 0 4.50179 0.149414 5.00537 0.448242C5.51449 0.74707 5.91846 1.14827 6.21729 1.65186C6.51611 2.15544 6.66553 2.71159 6.66553 3.32031C6.66553 3.9401 6.51611 4.50179 6.21729 5.00537C5.91846 5.50895 5.51449 5.91292 5.00537 6.21729C4.50179 6.51611 3.94287 6.66553 3.32861 6.66553ZM19.3159 6.66553C18.7072 6.66553 18.1483 6.51611 17.6392 6.21729C17.1356 5.91292 16.7344 5.50895 16.4355 5.00537C16.1367 4.50179 15.9873 3.9401 15.9873 3.32031C15.9873 2.71159 16.1367 2.15544 16.4355 1.65186C16.7344 1.14827 17.1356 0.74707 17.6392 0.448242C18.1483 0.149414 18.7072 0 19.3159 0C19.9302 0 20.4891 0.149414 20.9927 0.448242C21.5018 0.74707 21.9058 1.14827 22.2046 1.65186C22.5034 2.15544 22.6528 2.71159 22.6528 3.32031C22.6528 3.9401 22.5034 4.50179 22.2046 5.00537C21.9058 5.50895 21.5018 5.91292 20.9927 6.21729C20.4891 6.51611 19.9302 6.66553 19.3159 6.66553ZM11.3306 18.4277C10.7163 18.4277 10.1574 18.2783 9.65381 17.9795C9.15023 17.6807 8.74626 17.2767 8.44189 16.7676C8.14307 16.264 7.99365 15.7051 7.99365 15.0908C7.99365 14.4766 8.14307 13.9176 8.44189 13.4141C8.74626 12.9105 9.15023 12.5093 9.65381 12.2104C10.1574 11.9116 10.7163 11.7622 11.3306 11.7622C11.9448 11.7622 12.5037 11.9116 13.0073 12.2104C13.5109 12.5093 13.9121 12.9105 14.2109 13.4141C14.5153 13.9176 14.6675 14.4766 14.6675 15.0908C14.6675 15.7051 14.5153 16.264 14.2109 16.7676C13.9121 17.2767 13.5109 17.6807 13.0073 17.9795C12.5037 18.2783 11.9448 18.4277 11.3306 18.4277ZM8.57471 4.2085C8.34229 4.2085 8.14307 4.12549 7.97705 3.95947C7.81657 3.79346 7.73633 3.59701 7.73633 3.37012C7.73633 3.1377 7.81657 2.93848 7.97705 2.77246C8.14307 2.60645 8.34229 2.52344 8.57471 2.52344C8.80713 2.52344 9.00358 2.60645 9.16406 2.77246C9.33008 2.93848 9.41309 3.1377 9.41309 3.37012C9.41309 3.59701 9.33008 3.79346 9.16406 3.95947C9.00358 4.12549 8.80713 4.2085 8.57471 4.2085ZM11.3306 4.2085C11.0981 4.2085 10.8989 4.12549 10.7329 3.95947C10.5724 3.79346 10.4922 3.59701 10.4922 3.37012C10.4922 3.1377 10.5724 2.93848 10.7329 2.77246C10.8989 2.60645 11.0981 2.52344 11.3306 2.52344C11.5575 2.52344 11.7539 2.60645 11.9199 2.77246C12.0859 2.93848 12.1689 3.1377 12.1689 3.37012C12.1689 3.59701 12.0859 3.79346 11.9199 3.95947C11.7539 4.12549 11.5575 4.2085 11.3306 4.2085ZM14.0781 4.2085C13.8457 4.2085 13.6465 4.12549 13.4805 3.95947C13.32 3.79346 13.2397 3.59701 13.2397 3.37012C13.2397 3.1377 13.32 2.93848 13.4805 2.77246C13.6465 2.60645 13.8457 2.52344 14.0781 2.52344C14.3105 2.52344 14.507 2.60645 14.6675 2.77246C14.8335 2.93848 14.9165 3.1377 14.9165 3.37012C14.9165 3.59701 14.8335 3.79346 14.6675 3.95947C14.507 4.12549 14.3105 4.2085 14.0781 4.2085ZM16.5767 9.03955C16.3442 9.03955 16.145 8.95654 15.979 8.79053C15.813 8.62451 15.73 8.42529 15.73 8.19287C15.73 7.96598 15.813 7.76953 15.979 7.60352C16.145 7.4375 16.3442 7.35449 16.5767 7.35449C16.8035 7.35449 17 7.4375 17.166 7.60352C17.332 7.76953 17.415 7.96598 17.415 8.19287C17.415 8.42529 17.332 8.62451 17.166 8.79053C17 8.95654 16.8035 9.03955 16.5767 9.03955ZM14.5762 11.2393C14.3493 11.2393 14.1528 11.1562 13.9868 10.9902C13.8208 10.8242 13.7378 10.6278 13.7378 10.4009C13.7378 10.1685 13.8208 9.96924 13.9868 9.80322C14.1528 9.63721 14.3493 9.5542 14.5762 9.5542C14.8086 9.5542 15.0078 9.63721 15.1738 9.80322C15.3398 9.96924 15.4229 10.1685 15.4229 10.4009C15.4229 10.6278 15.3398 10.8242 15.1738 10.9902C15.0078 11.1562 14.8086 11.2393 14.5762 11.2393ZM8.06836 11.2393C7.84147 11.2393 7.64502 11.1562 7.479 10.9902C7.31299 10.8242 7.22998 10.6278 7.22998 10.4009C7.22998 10.1685 7.31299 9.96924 7.479 9.80322C7.64502 9.63721 7.84147 9.5542 8.06836 9.5542C8.30078 9.5542 8.5 9.63721 8.66602 9.80322C8.83203 9.96924 8.91504 10.1685 8.91504 10.4009C8.91504 10.6278 8.83203 10.8242 8.66602 10.9902C8.5 11.1562 8.30078 11.2393 8.06836 11.2393ZM6.07617 9.03955C5.84375 9.03955 5.64453 8.95654 5.47852 8.79053C5.31803 8.62451 5.23779 8.42529 5.23779 8.19287C5.23779 7.96598 5.31803 7.76953 5.47852 7.60352C5.64453 7.4375 5.84375 7.35449 6.07617 7.35449C6.30306 7.35449 6.49951 7.4375 6.66553 7.60352C6.83154 7.76953 6.91455 7.96598 6.91455 8.19287C6.91455 8.42529 6.83154 8.62451 6.66553 8.79053C6.49951 8.95654 6.30306 9.03955 6.07617 9.03955Z" fill="#474747"/>
</svg>
