<svg width="24" height="24" viewBox="0 0 24 24" fill="none" xmlns="http://www.w3.org/2000/svg">
<path d="M10.75 3.90039C14.5331 3.90039 17.5996 6.96685 17.5996 10.75C17.5996 14.5331 14.5331 17.5996 10.75 17.5996C6.96685 17.5996 3.90039 14.5331 3.90039 10.75C3.90039 6.96685 6.96685 3.90039 10.75 3.90039ZM10.75 5C7.57436 5 5 7.57436 5 10.75C5 13.9256 7.57436 16.5 10.75 16.5C13.9256 16.5 16.5 13.9256 16.5 10.75C16.5 7.57436 13.9256 5 10.75 5Z" fill="#444447" stroke="#444447" stroke-width="0.2"/>
<path d="M15.3535 14.5469C15.38 14.5469 15.4051 14.5574 15.4238 14.5762L21.4238 20.5762C21.4629 20.6152 21.4629 20.6777 21.4238 20.7168L20.7168 21.4238C20.6777 21.4629 20.6152 21.4629 20.5762 21.4238L14.5762 15.4238C14.5574 15.4051 14.5469 15.38 14.5469 15.3535C14.5469 15.327 14.5574 15.3019 14.5762 15.2832L15.2832 14.5762L15.3154 14.5537C15.3274 14.5488 15.3404 14.5469 15.3535 14.5469Z" fill="#444447" stroke="#444447" stroke-width="0.2" stroke-linejoin="round"/>
</svg>
