<svg width="20" height="20" viewBox="0 0 20 20" fill="none" xmlns="http://www.w3.org/2000/svg">
<path d="M7.5 17.4994V11.3327C7.5 10.866 7.5 10.6326 7.59083 10.4544C7.67072 10.2976 7.79821 10.1701 7.95501 10.0902C8.13327 9.99938 8.36662 9.99938 8.83333 9.99938H11.1667C11.6334 9.99938 11.8667 9.99938 12.045 10.0902C12.2018 10.1701 12.3293 10.2976 12.4092 10.4544C12.5 10.6326 12.5 10.866 12.5 11.3327V17.4994" stroke="white" stroke-width="1.05263" stroke-linecap="round" stroke-linejoin="round"/>
<path d="M2.91699 7.50011L10.0003 1.66678L17.5003 7.50011V16.6668L12.917 17.5001L12.5003 10.4168H7.50033L7.08366 17.0834L2.91699 16.6668V7.50011Z" fill="white" stroke="white" stroke-width="0.526316"/>
</svg>
