<svg width="18" height="18" viewBox="0 0 18 18" fill="none" xmlns="http://www.w3.org/2000/svg">
<path d="M2.47375 7.97437L9.47375 2.47437L15.5988 7.22437V16.2244H11.4738L11.9738 9.84937H6.59875V15.8494H2.97375L2.47375 7.97437Z" fill="white" stroke="white" stroke-width="0.473684"/>
<path d="M8.9043 2.04224C9.11331 1.98576 9.33395 1.98577 9.54297 2.04224C9.80265 2.11255 10.0222 2.29493 10.251 2.4729L15.3379 6.42896C15.6565 6.67676 15.8903 6.85333 16.0605 7.08325C16.2032 7.27617 16.3093 7.49478 16.374 7.72583C16.4511 8.00131 16.4473 8.29397 16.4473 8.69751V14.1233C16.4473 14.5353 16.4481 14.8739 16.4258 15.1477C16.403 15.4269 16.3537 15.682 16.2324 15.9202C16.0433 16.2913 15.7412 16.5933 15.3701 16.7825C15.1318 16.9039 14.877 16.953 14.5977 16.9758C14.3238 16.9982 13.9855 16.9973 13.5732 16.9973H11.4736C11.212 16.9973 11 16.7853 11 16.5237V10.9739C11 10.7563 10.9995 10.621 10.9912 10.5198C10.9836 10.4272 10.9715 10.4022 10.9697 10.3987C10.9432 10.3468 10.9005 10.304 10.8486 10.2776C10.8443 10.2754 10.8185 10.2635 10.7275 10.2561C10.6263 10.2478 10.4911 10.2473 10.2734 10.2473H8.17383C7.95609 10.2473 7.82101 10.2478 7.71973 10.2561C7.62838 10.2636 7.6028 10.2755 7.59863 10.2776C7.54674 10.304 7.50404 10.3468 7.47754 10.3987C7.47575 10.4022 7.46364 10.4272 7.45605 10.5198C7.44779 10.621 7.44727 10.7563 7.44727 10.9739V16.5237C7.44727 16.7853 7.23524 16.9973 6.97363 16.9973H4.87402C4.46181 16.9973 4.12349 16.9982 3.84961 16.9758C3.5703 16.953 3.31541 16.9039 3.07715 16.7825C2.70607 16.5933 2.404 16.2913 2.21484 15.9202C2.09355 15.682 2.04431 15.4269 2.02148 15.1477C1.99914 14.8739 2 14.5353 2 14.1233V8.69751C2 8.29397 1.99621 8.00131 2.07324 7.72583C2.13796 7.49477 2.24403 7.27617 2.38672 7.08325C2.55693 6.85332 2.79075 6.67678 3.10938 6.42896L8.19629 2.4729C8.42511 2.29492 8.6446 2.11255 8.9043 2.04224ZM9.15137 2.95728C9.12022 2.96573 9.07502 2.98942 8.77734 3.22095L3.69141 7.177C3.33071 7.45754 3.22315 7.54587 3.14844 7.64673C3.07428 7.74699 3.01901 7.86063 2.98535 7.98071C2.95149 8.10169 2.94727 8.24024 2.94727 8.69751V14.1233C2.94727 14.5509 2.94736 14.8442 2.96582 15.0706C2.98384 15.291 3.01761 15.407 3.05957 15.4895C3.15792 15.6825 3.31483 15.8393 3.50781 15.9377C3.5903 15.9798 3.70611 16.0134 3.92676 16.0315C4.15312 16.05 4.44618 16.05 4.87402 16.05H6.5V10.9739C6.5 10.7719 6.49957 10.5913 6.51172 10.4426C6.52435 10.2884 6.55329 10.126 6.63379 9.96802C6.75108 9.73814 6.93805 9.55106 7.16797 9.43384C7.32605 9.35332 7.48826 9.32438 7.64258 9.31177C7.79137 9.29962 7.97169 9.30005 8.17383 9.30005H10.2734C10.4756 9.30005 10.6559 9.29962 10.8047 9.31177C10.959 9.32437 11.1212 9.35334 11.2793 9.43384C11.5092 9.55106 11.6962 9.73815 11.8135 9.96802C11.894 10.126 11.9229 10.2884 11.9355 10.4426C11.9477 10.5913 11.9473 10.7719 11.9473 10.9739V16.05H13.5732C14.0011 16.05 14.2941 16.05 14.5205 16.0315C14.7412 16.0134 14.857 15.9798 14.9395 15.9377C15.1325 15.8393 15.2893 15.6825 15.3877 15.4895C15.4297 15.407 15.4634 15.291 15.4814 15.0706C15.4999 14.8442 15.5 14.5509 15.5 14.1233V8.69751C15.5 8.24024 15.4958 8.10169 15.4619 7.98071C15.4283 7.86063 15.373 7.74699 15.2988 7.64673C15.2241 7.54589 15.1165 7.45752 14.7559 7.177L9.66992 3.22095C9.37228 2.98945 9.32705 2.96573 9.2959 2.95728C9.24867 2.94451 9.1986 2.9445 9.15137 2.95728Z" fill="white"/>
</svg>
