<svg width="40" height="50" viewBox="0 0 40 50" fill="none" xmlns="http://www.w3.org/2000/svg">
<g filter="url(#filter0_d_2333_25783)">
<path d="M28.6269 33.6471C24.3183 37.8328 21.6216 42.6915 20.5435 44.8569C20.3415 45.2626 19.6894 45.2542 19.4898 44.8474C18.5619 42.9559 16.2381 38.8756 11.3993 33.6471C5.04017 26.7758 3.649 23.569 4.06865 18.2691C4.48831 12.9691 9.52417 4 20.0156 4C30.5069 4 35.5428 12.5614 35.9624 18.2691C36.3821 23.9767 33.2432 29.1625 28.6269 33.6471Z" fill="#81C22F"/>
<path d="M20.0156 4.5C30.1764 4.50004 35.0579 12.7847 35.4639 18.3057C35.8675 23.7959 32.8518 28.845 28.2783 33.2881C23.9122 37.5297 21.1856 42.4447 20.0957 44.6338C20.0951 44.6349 20.0944 44.6384 20.085 44.6436C20.0728 44.6501 20.0504 44.6575 20.0215 44.6572C19.9923 44.6569 19.9682 44.6495 19.9541 44.6416C19.9422 44.635 19.9397 44.6294 19.9385 44.627C18.99 42.6938 16.6394 38.5729 11.7666 33.3076C8.59323 29.8787 6.70023 27.4058 5.64453 25.1562C4.60026 22.931 4.36251 20.896 4.56738 18.3086C4.76816 15.7729 6.08476 12.3087 8.63672 9.48242C11.1765 6.66967 14.928 4.5 20.0156 4.5Z" stroke="white"/>
</g>
<g clip-path="url(#clip0_2333_25783)">
<path d="M19.1143 22.5283H21.3522C21.8847 22.5283 22.1509 22.2669 22.1509 21.744V21.1611C22.8561 21.1132 23.5613 21.0316 24.2665 20.9165C24.9716 20.8013 25.6816 20.6502 26.3964 20.4631C27.1112 20.2713 27.8331 20.0362 28.5623 19.758V18.5707C27.6652 18.964 26.7634 19.2783 25.8567 19.5133C24.9548 19.7484 24.0362 19.9163 23.1007 20.017C22.1701 20.1178 21.2131 20.1681 20.2297 20.1681C19.251 20.1681 18.294 20.1178 17.3586 20.017C16.4279 19.9163 15.5093 19.7484 14.6026 19.5133C13.7007 19.2783 12.8013 18.964 11.9042 18.5707V19.758C12.6334 20.0362 13.3553 20.2713 14.0701 20.4631C14.7849 20.6502 15.4949 20.8013 16.2 20.9165C16.9052 21.0316 17.6104 21.1132 18.3156 21.1611V21.744C18.3156 22.2669 18.5818 22.5283 19.1143 22.5283ZM14.1277 27.3135C13.3889 27.3135 12.8324 27.1312 12.4583 26.7666C12.0889 26.4068 11.9042 25.8575 11.9042 25.1188V18.1173C11.9042 17.3786 12.0889 16.8293 12.4583 16.4695C12.8324 16.1049 13.3889 15.9226 14.1277 15.9226H26.3388C27.0824 15.9226 27.6388 16.1049 28.0082 16.4695C28.3776 16.8293 28.5623 17.3786 28.5623 18.1173V25.1188C28.5623 25.8575 28.3776 26.4068 28.0082 26.7666C27.6388 27.1312 27.0824 27.3135 26.3388 27.3135H14.1277ZM16.5814 16.5487V15.3542C16.5814 14.6778 16.7637 14.1789 17.1283 13.8575C17.4929 13.5313 17.9822 13.3682 18.5962 13.3682H21.8631C22.5155 13.3682 23.0144 13.5313 23.3598 13.8575C23.7052 14.1789 23.8779 14.6778 23.8779 15.3542V16.5343H22.7625V15.275C22.7625 15.0016 22.6858 14.7905 22.5323 14.6418C22.3788 14.4931 22.1629 14.4187 21.8847 14.4187H18.5818C18.2988 14.4187 18.0805 14.4931 17.927 14.6418C17.7735 14.7905 17.6968 15.0016 17.6968 15.275V16.5487H16.5814Z" fill="white"/>
</g>
<defs>
<filter id="filter0_d_2333_25783" x="0" y="0" width="40" height="49.1567" filterUnits="userSpaceOnUse" color-interpolation-filters="sRGB">
<feFlood flood-opacity="0" result="BackgroundImageFix"/>
<feColorMatrix in="SourceAlpha" type="matrix" values="0 0 0 0 0 0 0 0 0 0 0 0 0 0 0 0 0 0 127 0" result="hardAlpha"/>
<feOffset/>
<feGaussianBlur stdDeviation="2"/>
<feComposite in2="hardAlpha" operator="out"/>
<feColorMatrix type="matrix" values="0 0 0 0 0 0 0 0 0 0 0 0 0 0 0 0 0 0 0.25 0"/>
<feBlend mode="normal" in2="BackgroundImageFix" result="effect1_dropShadow_2333_25783"/>
<feBlend mode="normal" in="SourceGraphic" in2="effect1_dropShadow_2333_25783" result="shape"/>
</filter>
<clipPath id="clip0_2333_25783">
<rect width="20" height="20" fill="white" transform="translate(10 10)"/>
</clipPath>
</defs>
</svg>
