<svg width="40" height="50" viewBox="0 0 40 50" fill="none" xmlns="http://www.w3.org/2000/svg">
<g filter="url(#filter0_d_700_14174)">
<path d="M28.6269 33.6471C24.3183 37.8328 21.6216 42.6915 20.5435 44.8569C20.3415 45.2626 19.6894 45.2542 19.4898 44.8474C18.5619 42.9559 16.2381 38.8756 11.3993 33.6471C5.04017 26.7758 3.649 23.569 4.06865 18.2691C4.48831 12.9691 9.52417 4 20.0156 4C30.5069 4 35.5428 12.5614 35.9624 18.2691C36.3821 23.9767 33.2432 29.1625 28.6269 33.6471Z" fill="#FF8000"/>
<path d="M20.0156 4.5C30.1764 4.50004 35.0579 12.7847 35.4639 18.3057C35.8675 23.7959 32.8518 28.845 28.2783 33.2881C23.9122 37.5297 21.1856 42.4447 20.0957 44.6338C20.0951 44.6349 20.0944 44.6384 20.085 44.6436C20.0728 44.6501 20.0504 44.6575 20.0215 44.6572C19.9923 44.6569 19.9682 44.6495 19.9541 44.6416C19.9422 44.635 19.9397 44.6294 19.9385 44.627C18.99 42.6938 16.6394 38.5729 11.7666 33.3076C8.59323 29.8787 6.70023 27.4058 5.64453 25.1562C4.60026 22.931 4.36251 20.896 4.56738 18.3086C4.76816 15.7729 6.08476 12.3087 8.63672 9.48242C11.1765 6.66967 14.928 4.5 20.0156 4.5Z" stroke="white"/>
</g>
<g clip-path="url(#clip0_700_14174)">
<path d="M14.2247 23.0907C14.2247 22.5822 14.3542 22.0809 14.6133 21.5868C14.8723 21.0879 15.2441 20.6321 15.7286 20.2196C16.2131 19.807 16.7912 19.4784 17.4628 19.2338L17.7003 15.9309C17.3501 15.7342 17.0239 15.5328 16.7216 15.3265C16.4242 15.1154 16.1628 14.9115 15.9373 14.7148C15.7118 14.5182 15.5367 14.3383 15.412 14.1752C15.2297 13.9353 15.1386 13.7002 15.1386 13.47C15.1386 13.2493 15.2153 13.067 15.3688 12.9231C15.5223 12.7792 15.7262 12.7072 15.9805 12.7072H23.6511C23.9006 12.7072 24.102 12.7792 24.2556 12.9231C24.4139 13.067 24.493 13.2493 24.493 13.47C24.493 13.7002 24.3995 13.9353 24.2124 14.1752C24.0877 14.3383 23.9126 14.5182 23.6871 14.7148C23.4616 14.9115 23.1978 15.113 22.8956 15.3193C22.5981 15.5256 22.2743 15.7294 21.9241 15.9309L22.1616 19.2338C22.8332 19.4784 23.4113 19.807 23.8958 20.2196C24.3803 20.6321 24.7521 21.0879 25.0111 21.5868C25.2702 22.0809 25.3997 22.5822 25.3997 23.0907C25.3997 23.3977 25.3037 23.6447 25.1118 23.8318C24.9248 24.0141 24.6681 24.1053 24.3419 24.1053H20.449V27.4657C20.449 27.7391 20.425 27.9981 20.3771 28.2428C20.3291 28.4875 20.2691 28.7009 20.1972 28.8832C20.1252 29.0703 20.0533 29.2166 19.9813 29.3222C19.9141 29.4277 19.859 29.4805 19.8158 29.4805C19.7678 29.4805 19.7079 29.4277 19.6359 29.3222C19.5687 29.2166 19.4992 29.0703 19.4272 28.8832C19.3553 28.7009 19.2953 28.4875 19.2473 28.2428C19.1994 27.9981 19.1754 27.7391 19.1754 27.4657V24.1053H15.2825C14.9611 24.1053 14.7044 24.0141 14.5125 23.8318C14.3207 23.6447 14.2247 23.3977 14.2247 23.0907Z" fill="white"/>
</g>
<defs>
<filter id="filter0_d_700_14174" x="0" y="0" width="40" height="49.1567" filterUnits="userSpaceOnUse" color-interpolation-filters="sRGB">
<feFlood flood-opacity="0" result="BackgroundImageFix"/>
<feColorMatrix in="SourceAlpha" type="matrix" values="0 0 0 0 0 0 0 0 0 0 0 0 0 0 0 0 0 0 127 0" result="hardAlpha"/>
<feOffset/>
<feGaussianBlur stdDeviation="2"/>
<feComposite in2="hardAlpha" operator="out"/>
<feColorMatrix type="matrix" values="0 0 0 0 0 0 0 0 0 0 0 0 0 0 0 0 0 0 0.25 0"/>
<feBlend mode="normal" in2="BackgroundImageFix" result="effect1_dropShadow_700_14174"/>
<feBlend mode="normal" in="SourceGraphic" in2="effect1_dropShadow_700_14174" result="shape"/>
</filter>
<clipPath id="clip0_700_14174">
<rect width="20" height="20" fill="white" transform="translate(10 10)"/>
</clipPath>
</defs>
</svg>
