<svg width="20" height="20" viewBox="0 0 20 20" fill="none" xmlns="http://www.w3.org/2000/svg">
<path d="M6.03821 1.95792C6.43158 1.95792 6.80576 2.08984 7.16075 2.35369C7.51574 2.61273 7.83235 2.95333 8.11058 3.37548C8.39361 3.79283 8.61428 4.24616 8.77259 4.73547C8.93569 5.22478 9.01724 5.6997 9.01724 6.16023C9.01724 6.45285 8.98127 6.82463 8.90931 7.27556C8.84215 7.7217 8.73661 8.19901 8.5927 8.70751C8.44878 9.21121 8.26169 9.69333 8.03143 10.1539H4.05219C3.82193 9.69333 3.63484 9.21121 3.49093 8.70751C3.34701 8.19901 3.23908 7.7217 3.16712 7.27556C3.09996 6.82463 3.06638 6.45285 3.06638 6.16023C3.06638 5.6997 3.14553 5.22478 3.30384 4.73547C3.46694 4.24616 3.68761 3.79283 3.96585 3.37548C4.24408 2.95333 4.56069 2.61273 4.91568 2.35369C5.27547 2.08984 5.64964 1.95792 6.03821 1.95792ZM6.04541 14.3849C5.48414 14.3849 5.0548 14.1331 4.75737 13.6294C4.46475 13.1257 4.31844 12.4781 4.31844 11.6865C4.31844 11.6098 4.32083 11.521 4.32563 11.4203C4.33523 11.3196 4.34722 11.226 4.36161 11.1397H7.72921C7.7436 11.226 7.75319 11.3196 7.75799 11.4203C7.76759 11.521 7.77238 11.6098 7.77238 11.6865C7.77238 12.2142 7.70522 12.682 7.5709 13.0897C7.44138 13.4927 7.2471 13.8093 6.98805 14.0395C6.7338 14.2698 6.41959 14.3849 6.04541 14.3849ZM14.781 6.68551C15.1504 6.81983 15.4574 7.07168 15.7021 7.44107C15.9467 7.80565 16.1266 8.23259 16.2418 8.7219C16.3617 9.21121 16.4144 9.71491 16.4001 10.233C16.3857 10.7463 16.2993 11.2164 16.141 11.6434C16.0403 11.9264 15.8796 12.267 15.6589 12.6652C15.443 13.0585 15.1792 13.4687 14.8674 13.8956C14.5603 14.3178 14.2198 14.7087 13.8456 15.0685L10.1038 13.7085C10.051 13.1952 10.0414 12.6772 10.075 12.1543C10.1134 11.6266 10.1758 11.1397 10.2621 10.6935C10.3532 10.2474 10.4492 9.88761 10.5499 9.61417C10.7082 9.18243 10.9457 8.76508 11.2623 8.36212C11.5837 7.95436 11.9459 7.60177 12.3489 7.30435C12.7566 7.00692 13.1716 6.79585 13.5937 6.67112C14.0207 6.5464 14.4164 6.55119 14.781 6.68551ZM10.5355 18.3642C10.0079 18.1675 9.69124 17.7813 9.58571 17.2057C9.48497 16.6348 9.56892 15.9776 9.83756 15.234C9.86154 15.1621 9.89512 15.0805 9.9383 14.9894C9.98147 14.8934 10.0246 14.8071 10.0678 14.7303L13.2339 15.8888C13.2147 15.9752 13.1908 16.0663 13.162 16.1623C13.138 16.263 13.1116 16.3494 13.0828 16.4213C12.8142 17.1601 12.4544 17.7166 12.0035 18.0907C11.5525 18.4649 11.0632 18.5561 10.5355 18.3642Z" fill="white"/>
</svg>
