<svg width="20" height="20" viewBox="0 0 20 20" fill="none" xmlns="http://www.w3.org/2000/svg">
<circle cx="9.77774" cy="9.77774" r="1.79629" fill="#737373"/>
<path d="M10.6152 1.81141C9.26983 1.67001 7.91057 1.87164 6.66418 2.3975C5.4178 2.92336 4.32489 3.75631 3.4874 4.81867C2.64991 5.88103 2.09512 7.13819 1.87476 8.4729C1.6544 9.80761 1.77566 11.1764 2.22723 12.4516C2.6788 13.7267 3.44597 14.8668 4.45718 15.7654C5.46839 16.664 6.69071 17.2918 8.01013 17.5904C9.32955 17.8889 10.7031 17.8484 12.0026 17.4727C13.3022 17.097 14.4854 16.3983 15.442 15.4417" stroke="#737373" stroke-width="1.65" stroke-linecap="round"/>
<path d="M9.56543 5.36566C8.90383 5.39754 8.25787 5.57778 7.67535 5.89305C7.09283 6.20832 6.58866 6.65054 6.20015 7.187C5.81164 7.72346 5.54874 8.34042 5.4309 8.99221C5.31306 9.64401 5.3433 10.314 5.51938 10.9525C5.69546 11.591 6.01288 12.1818 6.44814 12.6811C6.8834 13.1803 7.42536 13.5753 8.03392 13.8368C8.64247 14.0984 9.30204 14.2197 9.96382 14.1918C10.6256 14.1639 11.2726 13.9876 11.8571 13.6759" stroke="#737373" stroke-width="1.65" stroke-linecap="round"/>
<path d="M12.921 1.88761C12.9882 1.70093 13.1944 1.60341 13.3782 1.67803C14.4887 2.1288 15.4989 2.79777 16.3484 3.6466C17.2827 4.58016 17.9996 5.70829 18.4481 6.95062C18.8965 8.19295 19.0654 9.51889 18.9428 10.834C18.8313 12.0297 18.4812 13.1897 17.9147 14.2458C17.8209 14.4206 17.5999 14.4772 17.429 14.3765L10.2566 10.1511C10.1078 10.0635 10.0425 9.88236 10.101 9.71988L12.921 1.88761Z" fill="url(#paint0_linear_561_14998)"/>
<defs>
<linearGradient id="paint0_linear_561_14998" x1="18.7595" y1="6.18517" x2="10.6761" y2="9.77775" gradientUnits="userSpaceOnUse">
<stop stop-color="#767676" stop-opacity="0"/>
<stop offset="1" stop-color="#737373"/>
</linearGradient>
</defs>
</svg>
