<svg width="40" height="50" viewBox="0 0 40 50" fill="none" xmlns="http://www.w3.org/2000/svg">
<g filter="url(#filter0_d_2697_16059)">
<path d="M28.6269 33.6471C24.3183 37.8328 21.6216 42.6915 20.5435 44.8569C20.3415 45.2626 19.6894 45.2542 19.4898 44.8474C18.5619 42.9559 16.2381 38.8756 11.3993 33.6471C5.04017 26.7758 3.649 23.569 4.06865 18.2691C4.48831 12.9691 9.52417 4 20.0156 4C30.5069 4 35.5428 12.5614 35.9624 18.2691C36.3821 23.9767 33.2432 29.1625 28.6269 33.6471Z" fill="#474747"/>
<path d="M20.0156 4.5C30.1764 4.50004 35.0579 12.7847 35.4639 18.3057C35.8675 23.7959 32.8518 28.845 28.2783 33.2881C23.9122 37.5297 21.1856 42.4447 20.0957 44.6338C20.0951 44.6349 20.0944 44.6384 20.085 44.6436C20.0728 44.6501 20.0504 44.6575 20.0215 44.6572C19.9923 44.6569 19.9682 44.6495 19.9541 44.6416C19.9422 44.635 19.9397 44.6294 19.9385 44.627C18.99 42.6938 16.6394 38.5729 11.7666 33.3076C8.59323 29.8787 6.70023 27.4058 5.64453 25.1562C4.60026 22.931 4.36251 20.896 4.56738 18.3086C4.76816 15.7729 6.08476 12.3087 8.63672 9.48242C11.1765 6.66967 14.928 4.5 20.0156 4.5Z" stroke="white"/>
</g>
<path d="M16.0382 11.9579C16.4316 11.9579 16.8058 12.0898 17.1607 12.3537C17.5157 12.6127 17.8323 12.9533 18.1106 13.3755C18.3936 13.7928 18.6143 14.2462 18.7726 14.7355C18.9357 15.2248 19.0172 15.6997 19.0172 16.1602C19.0172 16.4529 18.9813 16.8246 18.9093 17.2756C18.8421 17.7217 18.7366 18.199 18.5927 18.7075C18.4488 19.2112 18.2617 19.6933 18.0314 20.1539H14.0522C13.8219 19.6933 13.6348 19.2112 13.4909 18.7075C13.347 18.199 13.2391 17.7217 13.1671 17.2756C13.1 16.8246 13.0664 16.4529 13.0664 16.1602C13.0664 15.6997 13.1455 15.2248 13.3038 14.7355C13.4669 14.2462 13.6876 13.7928 13.9658 13.3755C14.2441 12.9533 14.5607 12.6127 14.9157 12.3537C15.2755 12.0898 15.6496 11.9579 16.0382 11.9579ZM16.0454 24.3849C15.4841 24.3849 15.0548 24.1331 14.7574 23.6294C14.4647 23.1257 14.3184 22.4781 14.3184 21.6865C14.3184 21.6098 14.3208 21.521 14.3256 21.4203C14.3352 21.3196 14.3472 21.226 14.3616 21.1397H17.7292C17.7436 21.226 17.7532 21.3196 17.758 21.4203C17.7676 21.521 17.7724 21.6098 17.7724 21.6865C17.7724 22.2142 17.7052 22.682 17.5709 23.0897C17.4414 23.4927 17.2471 23.8093 16.988 24.0395C16.7338 24.2698 16.4196 24.3849 16.0454 24.3849ZM24.781 16.6855C25.1504 16.8198 25.4574 17.0717 25.7021 17.4411C25.9467 17.8056 26.1266 18.2326 26.2418 18.7219C26.3617 19.2112 26.4144 19.7149 26.4001 20.233C26.3857 20.7463 26.2993 21.2164 26.141 21.6434C26.0403 21.9264 25.8796 22.267 25.6589 22.6652C25.443 23.0585 25.1792 23.4687 24.8674 23.8956C24.5603 24.3178 24.2198 24.7087 23.8456 25.0685L20.1038 23.7085C20.051 23.1952 20.0414 22.6772 20.075 22.1543C20.1134 21.6266 20.1758 21.1397 20.2621 20.6935C20.3532 20.2474 20.4492 19.8876 20.5499 19.6142C20.7082 19.1824 20.9457 18.7651 21.2623 18.3621C21.5837 17.9544 21.9459 17.6018 22.3489 17.3043C22.7566 17.0069 23.1716 16.7958 23.5937 16.6711C24.0207 16.5464 24.4164 16.5512 24.781 16.6855ZM20.5355 28.3642C20.0079 28.1675 19.6912 27.7813 19.5857 27.2057C19.485 26.6348 19.5689 25.9776 19.8376 25.234C19.8615 25.1621 19.8951 25.0805 19.9383 24.9894C19.9815 24.8934 20.0246 24.8071 20.0678 24.7303L23.2339 25.8888C23.2147 25.9752 23.1908 26.0663 23.162 26.1623C23.138 26.263 23.1116 26.3494 23.0828 26.4213C22.8142 27.1601 22.4544 27.7166 22.0035 28.0907C21.5525 28.4649 21.0632 28.5561 20.5355 28.3642Z" fill="white"/>
<defs>
<filter id="filter0_d_2697_16059" x="0" y="0" width="40" height="49.1569" filterUnits="userSpaceOnUse" color-interpolation-filters="sRGB">
<feFlood flood-opacity="0" result="BackgroundImageFix"/>
<feColorMatrix in="SourceAlpha" type="matrix" values="0 0 0 0 0 0 0 0 0 0 0 0 0 0 0 0 0 0 127 0" result="hardAlpha"/>
<feOffset/>
<feGaussianBlur stdDeviation="2"/>
<feComposite in2="hardAlpha" operator="out"/>
<feColorMatrix type="matrix" values="0 0 0 0 0 0 0 0 0 0 0 0 0 0 0 0 0 0 0.25 0"/>
<feBlend mode="normal" in2="BackgroundImageFix" result="effect1_dropShadow_2697_16059"/>
<feBlend mode="normal" in="SourceGraphic" in2="effect1_dropShadow_2697_16059" result="shape"/>
</filter>
</defs>
</svg>
