<svg width="20" height="20" viewBox="0 0 20 20" fill="none" xmlns="http://www.w3.org/2000/svg">
<g clip-path="url(#clip0_560_16834)">
<path d="M9.11428 12.5284H11.3522C11.8846 12.5284 12.1509 12.267 12.1509 11.7441V11.1613C12.8561 11.1133 13.5612 11.0317 14.2664 10.9166C14.9716 10.8015 15.6816 10.6504 16.3964 10.4633C17.1111 10.2714 17.8331 10.0363 18.5623 9.75809V8.57079C17.6652 8.96416 16.7633 9.27837 15.8567 9.51343C14.9548 9.74849 14.0362 9.91639 13.1007 10.0171C12.1701 10.1179 11.213 10.1682 10.2296 10.1682C9.251 10.1682 8.29397 10.1179 7.35853 10.0171C6.42788 9.91639 5.50923 9.74849 4.60256 9.51343C3.7007 9.27837 2.80123 8.96416 1.90417 8.57079V9.75809C2.63333 10.0363 3.35531 10.2714 4.07008 10.4633C4.78486 10.6504 5.49483 10.8015 6.20001 10.9166C6.9052 11.0317 7.61038 11.1133 8.31556 11.1613V11.7441C8.31556 12.267 8.5818 12.5284 9.11428 12.5284ZM4.12765 17.3136C3.38889 17.3136 2.83242 17.1313 2.45824 16.7667C2.08886 16.4069 1.90417 15.8577 1.90417 15.1189V8.11746C1.90417 7.3787 2.08886 6.82943 2.45824 6.46964C2.83242 6.10506 3.38889 5.92277 4.12765 5.92277H16.3388C17.0823 5.92277 17.6388 6.10506 18.0082 6.46964C18.3776 6.82943 18.5623 7.3787 18.5623 8.11746V15.1189C18.5623 15.8577 18.3776 16.4069 18.0082 16.7667C17.6388 17.1313 17.0823 17.3136 16.3388 17.3136H4.12765ZM6.58139 6.5488V5.35431C6.58139 4.67791 6.76368 4.179 7.12826 3.85759C7.49285 3.53139 7.98216 3.36829 8.59619 3.36829H11.863C12.5155 3.36829 13.0144 3.53139 13.3598 3.85759C13.7052 4.179 13.8779 4.67791 13.8779 5.35431V6.5344H12.7625V5.27515C12.7625 5.00171 12.6858 4.79064 12.5323 4.64193C12.3787 4.49322 12.1629 4.41886 11.8846 4.41886H8.5818C8.29877 4.41886 8.0805 4.49322 7.92699 4.64193C7.77348 4.79064 7.69673 5.00171 7.69673 5.27515V6.5488H6.58139Z" fill="white"/>
</g>
<defs>
<clipPath id="clip0_560_16834">
<rect width="20" height="20" fill="white"/>
</clipPath>
</defs>
</svg>
