<svg width="1088" height="1088" viewBox="0 0 1088 1088" fill="none" xmlns="http://www.w3.org/2000/svg">
<path d="M533.745 148C320.152 148 147 321.163 147 534.771C147 748.378 320.152 921.541 533.745 921.541C619.093 921.541 697.983 893.893 761.95 847.065C771.766 839.879 772.414 825.697 763.812 817.094L653.89 707.165C646.904 700.178 635.998 699.236 627.356 704.026C599.619 719.402 567.704 728.156 533.745 728.156C426.948 728.156 340.372 641.574 340.372 534.771C340.372 427.967 426.948 341.386 533.745 341.386C640.542 341.386 727.117 427.967 727.117 534.771C727.117 568.151 718.659 599.556 703.77 626.96C699.088 635.578 700.071 646.385 707.006 653.32L817.092 763.414C825.721 772.044 839.956 771.36 847.117 761.478C893.275 697.778 920.49 619.453 920.49 534.771C920.49 321.163 747.338 148 533.745 148Z" fill="url(#paint0_radial_1080_17082)" fill-opacity="0.9"/>
<defs>
<radialGradient id="paint0_radial_1080_17082" cx="0" cy="0" r="1" gradientTransform="matrix(-287.051 297.384 297.364 287.07 533.745 534.77)" gradientUnits="userSpaceOnUse">
<stop stop-color="#246BEB"/>
<stop offset="1" stop-color="#246BEB" stop-opacity="0.2"/>
</radialGradient>
</defs>
</svg>
