<svg width="1088" height="1088" viewBox="0 0 1088 1088" fill="none" xmlns="http://www.w3.org/2000/svg">
<ellipse cx="123.758" cy="123.767" rx="123.758" ry="123.767" transform="matrix(-1 0 0 1 656.699 412.725)" fill="#246BEB"/>
<path d="M656.785 706.006C649.74 698.96 638.719 698.067 630.052 702.983C600.88 719.529 567.716 728.307 533.777 728.153C501.38 728.006 469.764 719.726 441.716 704.352C433.087 699.622 422.236 700.588 415.278 707.546L305.266 817.558C296.648 826.175 297.318 840.389 307.174 847.558C372.585 895.138 451.512 921.168 532.9 921.537C616.545 921.917 697.836 895.17 764.734 845.651C774.477 838.439 775.087 824.315 766.515 815.743L656.785 706.006Z" fill="#246BEB"/>
</svg>
