<svg width="20" height="20" viewBox="0 0 20 20" fill="none" xmlns="http://www.w3.org/2000/svg">
<g clip-path="url(#clip0_560_16827)">
<path d="M4.22472 13.0908C4.22472 12.5823 4.35424 12.081 4.61329 11.5869C4.87233 11.088 5.24411 10.6322 5.72862 10.2197C6.21314 9.80714 6.79119 9.47853 7.46279 9.23388L7.70025 5.93104C7.35006 5.73436 7.02385 5.53288 6.72163 5.3266C6.42421 5.11553 6.16277 4.91165 5.9373 4.71497C5.71183 4.51828 5.53674 4.33839 5.41201 4.17529C5.22972 3.93543 5.13857 3.70037 5.13857 3.4701C5.13857 3.24944 5.21533 3.06714 5.36884 2.92323C5.52235 2.77932 5.72623 2.70736 5.98047 2.70736H13.6511C13.9006 2.70736 14.102 2.77932 14.2556 2.92323C14.4139 3.06714 14.493 3.24944 14.493 3.4701C14.493 3.70037 14.3995 3.93543 14.2124 4.17529C14.0877 4.33839 13.9126 4.51828 13.6871 4.71497C13.4616 4.91165 13.1978 5.11313 12.8956 5.31941C12.5981 5.52568 12.2743 5.72956 11.9241 5.93104L12.1616 9.23388C12.8332 9.47853 13.4113 9.80714 13.8958 10.2197C14.3803 10.6322 14.7521 11.088 15.0111 11.5869C15.2702 12.081 15.3997 12.5823 15.3997 13.0908C15.3997 13.3978 15.3037 13.6449 15.1118 13.8319C14.9248 14.0142 14.6681 14.1054 14.3419 14.1054H10.449V17.4658C10.449 17.7392 10.425 17.9983 10.3771 18.2429C10.3291 18.4876 10.2691 18.7011 10.1972 18.8833C10.1252 19.0704 10.0533 19.2167 9.9813 19.3223C9.91414 19.4278 9.85897 19.4806 9.8158 19.4806C9.76782 19.4806 9.70786 19.4278 9.6359 19.3223C9.56874 19.2167 9.49918 19.0704 9.42723 18.8833C9.35527 18.7011 9.2953 18.4876 9.24733 18.2429C9.19936 17.9983 9.17538 17.7392 9.17538 17.4658V14.1054H5.28249C4.96108 14.1054 4.70443 14.0142 4.51255 13.8319C4.32066 13.6449 4.22472 13.3978 4.22472 13.0908Z" fill="white"/>
</g>
<defs>
<clipPath id="clip0_560_16827">
<rect width="20" height="20" fill="white"/>
</clipPath>
</defs>
</svg>
