<svg width="18" height="19" viewBox="0 0 18 19" fill="none" xmlns="http://www.w3.org/2000/svg">
<path d="M8.98242 11.1445C8.80078 11.1445 8.62207 11.1152 8.44629 11.0566C8.27051 10.998 8.07715 10.9072 7.86621 10.7842L0.984375 6.79395C0.632812 6.58301 0.380859 6.38672 0.228516 6.20508C0.0761719 6.02344 0 5.8125 0 5.57227C0 5.33203 0.0761719 5.12109 0.228516 4.93945C0.380859 4.75781 0.632812 4.56445 0.984375 4.35938L7.86621 0.360352C8.07715 0.237305 8.27051 0.146484 8.44629 0.0878906C8.62207 0.0292969 8.80078 0 8.98242 0C9.1582 0 9.33398 0.0292969 9.50977 0.0878906C9.69141 0.146484 9.8877 0.237305 10.0986 0.360352L16.9717 4.35938C17.3291 4.56445 17.584 4.75781 17.7363 4.93945C17.8887 5.12109 17.9648 5.33203 17.9648 5.57227C17.9648 5.8125 17.8887 6.02344 17.7363 6.20508C17.584 6.38672 17.3291 6.58301 16.9717 6.79395L10.0986 10.7842C9.8877 10.9072 9.69141 10.998 9.50977 11.0566C9.33398 11.1152 9.1582 11.1445 8.98242 11.1445ZM8.98242 18.3516C8.80078 18.3516 8.62207 18.3223 8.44629 18.2637C8.27051 18.2051 8.07715 18.1143 7.86621 17.9912L0.984375 13.9922C0.632812 13.7871 0.380859 13.5938 0.228516 13.4121C0.0761719 13.2305 0 13.0195 0 12.7793C0 12.5391 0.0761719 12.3281 0.228516 12.1465C0.380859 11.9648 0.632812 11.7686 0.984375 11.5576L3.90234 9.87891L7.25977 11.8213C7.59375 12.0146 7.89844 12.1494 8.17383 12.2256C8.45508 12.3018 8.72461 12.3398 8.98242 12.3398C9.24023 12.3398 9.50684 12.3018 9.78223 12.2256C10.0635 12.1494 10.3682 12.0146 10.6963 11.8213L14.0625 9.87891L16.9717 11.5576C17.3291 11.7686 17.584 11.9648 17.7363 12.1465C17.8887 12.3281 17.9648 12.5391 17.9648 12.7793C17.9648 13.0195 17.8887 13.2305 17.7363 13.4121C17.584 13.5938 17.3291 13.7871 16.9717 13.9922L10.0986 17.9912C9.8877 18.1143 9.69141 18.2051 9.50977 18.2637C9.33398 18.3223 9.1582 18.3516 8.98242 18.3516Z" fill="#474747"/>
</svg>
