<svg width="17" height="17" viewBox="0 0 17 17" fill="none" xmlns="http://www.w3.org/2000/svg">
<path d="M10.6895 0.00390625C11.4752 0.0515706 12.1647 0.545791 12.459 1.27539C12.4832 1.33542 12.5049 1.40154 12.5371 1.49805C12.5729 1.6052 12.5854 1.64153 12.5977 1.67188C12.7689 2.0966 13.1704 2.38631 13.6299 2.41406C13.6625 2.416 13.7049 2.41602 13.8252 2.41602C14.1122 2.41601 14.2883 2.41533 14.4336 2.42969C15.783 2.56335 16.8523 3.6286 16.9863 4.97656C17.0007 5.12155 17 5.28882 17 5.56055V11.8604C17 12.5298 17.0006 13.0582 16.9658 13.4824C16.9307 13.9115 16.8571 14.2723 16.6895 14.6006C16.4164 15.135 15.9807 15.5696 15.4453 15.8418C15.1165 16.0089 14.7543 16.0821 14.3242 16.1172C13.8992 16.1518 13.3702 16.1514 12.6992 16.1514H4.30078C3.62957 16.1514 3.09997 16.1518 2.6748 16.1172C2.24489 16.0821 1.88345 16.0088 1.55469 15.8418C1.01916 15.5696 0.583654 15.1351 0.310547 14.6006C0.14281 14.2722 0.0693476 13.9116 0.0341797 13.4824C-0.000560719 13.0582 0 12.5298 0 11.8604V5.56055C-5.48499e-07 5.28882 -0.000732267 5.12155 0.0136719 4.97656C0.14775 3.62851 1.21683 2.56318 2.56641 2.42969C2.71172 2.41535 2.8877 2.41602 3.1748 2.41602C3.29536 2.41602 3.33742 2.41603 3.37012 2.41406C3.82951 2.38621 4.23117 2.09652 4.40234 1.67188C4.41454 1.64157 4.42716 1.60496 4.46289 1.49805C4.49512 1.40163 4.51683 1.33539 4.54102 1.27539C4.83536 0.545795 5.52476 0.0514211 6.31055 0.00390625C6.37514 1.65366e-05 6.44491 0 6.54688 0H10.4531C10.5551 3.03004e-09 10.6248 3.44412e-06 10.6895 0.00390625ZM8.5 5.21289C6.24893 5.21296 4.41996 7.03358 4.41992 9.28418C4.42008 11.5347 6.24901 13.3554 8.5 13.3555C10.7509 13.3552 12.5789 11.5346 12.5791 9.28418C12.5791 7.03368 10.7509 5.21312 8.5 5.21289ZM8.5 6.91211C9.81645 6.91234 10.8798 7.97677 10.8799 9.28418C10.8797 10.5915 9.81637 11.655 8.5 11.6553C7.18349 11.6552 6.1193 10.5916 6.11914 9.28418C6.11918 7.97668 7.18341 6.91217 8.5 6.91211Z" fill="#444447"/>
</svg>
